<svg width="332" height="94" viewBox="0 0 332 94" fill="none" xmlns="http://www.w3.org/2000/svg">
<path d="M123.818 54.3254C126.099 54.3254 127.982 54.5237 129.568 54.9202C131.154 55.3168 132.344 55.9116 133.236 56.7047C134.128 57.4977 134.822 58.5882 135.219 59.877C135.615 61.1657 135.814 62.7518 135.814 64.5363V80.8934C135.814 81.5873 135.417 81.9838 134.723 81.9838H129.766C129.073 81.9838 128.676 81.5873 128.676 80.8934V66.2215C128.676 65.1311 128.577 64.338 128.478 63.5449C128.379 62.851 128.081 62.2562 127.685 61.8596C127.288 61.4631 126.792 61.1657 126.099 60.9674C125.405 60.7692 124.512 60.67 123.422 60.67H109.94C108.849 60.67 107.957 60.7692 107.263 60.9674C106.569 61.1657 105.974 61.4631 105.578 61.8596C105.181 62.2562 104.884 62.851 104.686 63.5449C104.487 64.2388 104.388 65.1311 104.388 66.2215V80.8934C104.388 81.5873 103.992 81.9838 103.298 81.9838H98.341C97.5479 81.9838 97.1514 81.5873 97.1514 80.8934V64.5363C97.1514 62.7518 97.3496 61.1657 97.7462 59.877C98.1427 58.5882 98.8366 57.4977 99.7288 56.7047C100.621 55.9116 101.91 55.3168 103.397 54.9202C104.884 54.5237 106.866 54.3254 109.147 54.3254H123.818Z" fill="#28A8E0"/>
<path d="M167.834 54.3254C169.519 54.3254 171.006 54.4246 172.097 54.722C173.187 55.0194 174.079 55.5151 174.773 56.1099C175.467 56.8038 175.864 57.5969 176.161 58.6873C176.459 59.7778 176.558 61.0666 176.558 62.5536V67.312C176.558 68.4025 176.359 69.0964 175.864 69.5921C175.368 69.9886 174.674 70.1869 173.683 70.1869H148.205V71.3765C148.205 72.9626 148.602 74.1523 149.296 74.8462C150.089 75.5401 151.576 75.9367 153.757 75.9367H174.872C175.467 75.9367 175.765 76.2341 175.765 76.8289V81.0916C175.765 81.6864 175.467 81.9838 174.872 81.9838H153.063C150.783 81.9838 148.899 81.7856 147.313 81.389C145.826 80.9925 144.537 80.3977 143.645 79.6046C142.753 78.8116 142.059 77.7211 141.663 76.4323C141.266 75.1436 141.068 73.5575 141.068 71.773V64.5363C141.068 62.7518 141.266 61.1657 141.663 59.877C142.059 58.5882 142.753 57.4977 143.645 56.7047C144.537 55.9116 145.826 55.3168 147.313 54.9202C148.8 54.5237 150.783 54.3254 153.063 54.3254H167.834ZM148.205 65.825H168.627C169.222 65.825 169.519 65.5276 169.519 64.9328V62.851C169.519 61.7605 169.321 61.0666 168.825 60.67C168.429 60.2735 167.537 59.9761 166.446 59.9761H153.757C151.576 59.9761 150.089 60.2735 149.296 60.9674C148.503 61.6614 148.205 62.851 148.205 64.4371V65.825Z" fill="#28A8E0"/>
<path d="M217.302 46.6921C217.996 46.6921 218.392 47.0887 218.392 47.7826V52.541C218.392 53.235 217.996 53.6315 217.302 53.6315H192.023C191.031 53.6315 190.337 53.9289 189.941 54.4246C189.544 54.9203 189.346 55.6142 189.346 56.5064V58.1917C189.346 60.0752 190.238 61.0666 192.023 61.0666H210.957C213.931 61.0666 216.112 61.8597 217.599 63.3467C219.086 64.8337 219.78 67.0146 219.78 69.7904V73.8549C219.78 76.3332 219.086 78.3159 217.599 79.8029C216.112 81.2899 213.931 82.083 210.858 82.083H182.803C182.01 82.083 181.614 81.6865 181.614 80.9925V76.135C181.614 75.441 182.01 75.0445 182.803 75.0445H209.371C210.362 75.0445 211.056 74.7471 211.453 74.2514C211.849 73.7557 212.048 73.0618 212.048 72.1696V70.1869C212.048 68.3034 211.156 67.312 209.371 67.312H190.437C187.462 67.312 185.282 66.519 183.795 65.0319C182.308 63.5449 181.614 61.364 181.614 58.5882V54.9203C181.614 52.4419 182.308 50.4592 183.795 48.9722C185.282 47.4852 187.462 46.6921 190.536 46.6921H217.302Z" fill="#232323"/>
<path d="M228.702 54.3255V47.6835C228.702 46.9896 229.099 46.593 229.793 46.593H234.749C235.443 46.593 235.84 46.9896 235.84 47.6835V54.3255H244.663C245.258 54.3255 245.555 54.6229 245.555 55.2177V59.3813C245.555 59.9761 245.258 60.2735 244.663 60.2735H235.84V71.9713C235.84 73.3592 236.137 74.4497 236.732 75.0445C237.327 75.7384 238.417 76.0358 240.103 76.0358H244.96C245.555 76.0358 245.853 76.3332 245.853 76.9281V81.0917C245.853 81.6865 245.555 81.9839 244.96 81.9839H238.814C236.831 81.9839 235.146 81.7856 233.857 81.3891C232.569 80.9925 231.478 80.3977 230.685 79.6047C229.892 78.8116 229.297 77.7211 229 76.4324C228.702 75.1436 228.504 73.6566 228.504 71.8722V60.2735H223.746C223.151 60.2735 222.853 59.9761 222.853 59.3813V55.2177C222.853 54.6229 223.151 54.3255 223.746 54.3255H228.702Z" fill="#232323"/>
<path d="M275.989 54.3254C278.269 54.3254 280.153 54.5237 281.739 54.9202C283.325 55.3168 284.515 55.9116 285.407 56.7047C286.299 57.4977 286.993 58.5882 287.39 59.877C287.786 61.1657 287.985 62.7518 287.985 64.5363V71.773C287.985 73.5575 287.786 75.1436 287.39 76.4323C286.993 77.7211 286.299 78.8116 285.407 79.6046C284.515 80.3977 283.226 80.9925 281.739 81.389C280.153 81.7856 278.269 81.9838 275.989 81.9838H261.714C259.434 81.9838 257.55 81.7856 255.964 81.389C254.477 80.9925 253.188 80.3977 252.296 79.6046C251.404 78.8116 250.71 77.7211 250.314 76.4323C249.917 75.1436 249.719 73.5575 249.719 71.773V64.5363C249.719 62.7518 249.917 61.1657 250.314 59.877C250.71 58.5882 251.404 57.4977 252.296 56.7047C253.188 55.9116 254.477 55.3168 255.964 54.9202C257.451 54.5237 259.434 54.3254 261.714 54.3254H275.989ZM256.856 70.5834C256.856 71.6739 256.956 72.5661 257.154 73.2601C257.352 73.954 257.649 74.5488 258.046 74.9453C258.443 75.3419 259.037 75.6393 259.731 75.8375C260.425 76.0358 261.317 76.1349 262.408 76.1349H275.295C276.386 76.1349 277.278 76.0358 278.071 75.8375C278.864 75.6393 279.36 75.3419 279.756 74.9453C280.153 74.5488 280.45 73.954 280.649 73.2601C280.847 72.5661 280.946 71.6739 280.946 70.5834V65.825C280.946 64.7345 280.847 63.9414 280.649 63.1484C280.45 62.3553 280.153 61.8596 279.756 61.4631C279.36 61.0666 278.765 60.7692 278.071 60.5709C277.377 60.3726 276.485 60.2735 275.295 60.2735H262.408C261.317 60.2735 260.425 60.3726 259.731 60.5709C259.037 60.7692 258.443 61.0666 258.046 61.4631C257.649 61.8596 257.352 62.4544 257.154 63.1484C256.956 63.8423 256.856 64.7345 256.856 65.825V70.5834Z" fill="#232323"/>
<path d="M320.005 54.2263C322.285 54.2263 324.168 54.5237 325.755 54.9203C327.341 55.3168 328.53 55.9116 329.423 56.7047C330.315 57.4977 331.009 58.5882 331.405 59.877C331.802 61.1657 332 62.7519 332 64.5363V71.7731C332 73.5575 331.802 75.1436 331.405 76.4324C331.009 77.7211 330.315 78.8116 329.423 79.6046C328.53 80.3977 327.242 80.9925 325.755 81.3891C324.168 81.7856 322.285 81.9839 320.005 81.9839H301.07V91.9964C301.07 92.6903 300.674 93.0869 299.98 93.0869H295.023C294.23 93.0869 293.833 92.6903 293.833 91.9964V64.4371C293.833 62.6527 294.032 61.0666 294.428 59.7778C294.825 58.4891 295.519 57.3986 296.411 56.6055C297.303 55.8125 298.592 55.2177 300.079 54.8211C301.566 54.4246 303.549 54.2263 305.829 54.2263H320.005ZM301.07 76.0358H319.311C320.401 76.0358 321.294 75.9367 322.087 75.7384C322.781 75.5402 323.375 75.2427 323.772 74.8462C324.168 74.4497 324.466 73.8549 324.664 73.1609C324.862 72.467 324.961 71.5748 324.961 70.4843V66.0233C324.961 64.9328 324.862 64.1397 324.664 63.3467C324.466 62.6527 324.168 62.0579 323.772 61.6614C323.375 61.2648 322.781 60.9674 322.087 60.7692C321.393 60.5709 320.5 60.4718 319.311 60.4718H306.622C305.531 60.4718 304.639 60.5709 303.945 60.7692C303.251 60.9674 302.656 61.2648 302.26 61.6614C301.863 62.0579 301.566 62.6527 301.368 63.3467C301.169 64.0406 301.07 64.9328 301.07 66.0233V76.0358Z" fill="#232323"/>
<path d="M41.438 78.0185V74.1523H17.2493C13.284 74.1523 10.0125 70.8809 10.0125 66.9155V17.1502C10.0125 13.1848 13.284 9.91341 17.2493 9.91341H67.0146C70.98 9.91341 74.2514 13.1848 74.2514 17.1502V41.3389H78.1176C80.2986 41.3389 82.2813 41.6363 84.264 42.3303V17.2493C84.264 7.73246 76.5315 0 67.0146 0H17.2493C7.73245 0 0 7.73246 0 17.2493V67.0146C0 76.5315 7.73245 84.264 17.2493 84.264H42.3302C41.7354 82.1821 41.438 80.1003 41.438 78.0185Z" fill="#232323"/>
<path d="M78.1177 84.1648H53.2351C49.8645 84.1648 47.0887 81.389 47.0887 78.0185V53.1358C47.0887 49.7653 49.8645 46.9895 53.2351 46.9895H78.1177C81.4883 46.9895 84.264 49.7653 84.264 53.1358V78.0185C84.264 81.389 81.4883 84.1648 78.1177 84.1648Z" fill="#28A8E0"/>
</svg>
